# xmcd CD database file
#
# Track frame offsets:
#	150
#	20813
#	41688
#	61198
#	97893
#	116730
#	139425
#	180353
#	229355
#
# Disc length: 3729 seconds
#
# Revision: 4
# Processed by: cddbd v1.5PL3 Copyright (c) Steve Scherf et al.
# Submitted via: CDex 1.51
#
DISCID=7a0e8f09
DTITLE=Various Artist - Blues In The Night
DYEAR=1992
DGENRE=Blues
TTITLE0=I Need Your Love So Bad - Junior Parker (live 1972)
TTITLE1=Don't Throw Your Love on Me So Strong - Junior Parker (live 1972)
TTITLE2=Hey, Pretty Baby - Junior Parker (live 1972)
TTITLE3=C Jam Blues - Jimmy McGriff
TTITLE4=Cry Me a River - Dakota Station
TTITLE5=It's the Talk of the Town - Dakota Station
TTITLE6=Freedom Suite - Jimmy McGriff (live 1977)
TTITLE7=Groovin' Groove - Groove Holmes
TTITLE8=Here's that Rainy Day - Groove Holmes
EXTD=Tracks 1-3 recorded at the Golden Flipper, New Jersey 1972\nArtist - Junior Parker\n\nTrack 4\nArtist - Jimmy McGriff\n\nTrack 5-6\nArtist - Dakota Staton\n\nTrack 7 recorded at the Cook County Jail Chicago IL 10/13/1972\nArtist - Jimmy McGriff\n\nT
EXTD=racks 8-9\nArtist - Groove Holmes YEAR: 1992
EXTT0=
EXTT1=
EXTT2=
EXTT3=
EXTT4=
EXTT5=
EXTT6=
EXTT7=
EXTT8=
PLAYORDER=
